<?xml version="1.0" standalone="no"?><!DOCTYPE svg PUBLIC "-//W3C//DTD SVG 1.1//EN" "http://www.w3.org/Graphics/SVG/1.1/DTD/svg11.dtd"><svg t="1575116490768" class="icon" viewBox="0 0 1024 1024" version="1.1" xmlns="http://www.w3.org/2000/svg" p-id="2957" xmlns:xlink="http://www.w3.org/1999/xlink" width="48" height="48"><defs><style type="text/css"></style></defs><path d="M0 509.820343a512 509.820343 0 1 0 1024 0 512 509.820343 0 1 0-1024 0Z" fill="#2CD7AA" p-id="2958"></path><path d="M529.071543 502.784V203.922286c0-9.376914-7.636114-16.983771-17.071543-16.983772s-17.071543 7.606857-17.071543 16.983772v305.883428c0 5.617371 2.779429 10.5472 6.977829 13.648457 0.497371 0.658286 0.965486 1.316571 1.565257 1.901715l193.082514 192.263314a17.115429 17.115429 0 0 0 24.137143 0 16.939886 16.939886 0 0 0 0-24.034743l-191.634286-190.815086z" fill="#FFFFFF" p-id="2959"></path></svg>